# xmcd CD database file
#
# Track frame offsets:
#	150
#	18959
#	38013
#	67317
#	96439
#	123169
#	138850
#	182348
#	213525
#	240532
#	255549
#	273447
#	290976
#	304119
#
# Disc length: 4374 seconds
#
# Revision: 0
# Processed by: cddbd v1.5.2PL0 Copyright (c) Steve Scherf et al.
# Submitted via: CDex 1.51
#
DISCID=cd11140e
DTITLE=John Patitucci - Line By Line
DYEAR=2006
DGENRE=Jazz
TTITLE0=The Root
TTITLE1=Agitato
TTITLE2=Circular
TTITLE3=Folklore
TTITLE4=Dry September
TTITLE5=Nana
TTITLE6=Theme And Variations For 6-String Bass And Strings
TTITLE7=Line By Line
TTITLE8=Evidence
TTITLE9=Jesus Is On The Mainline
TTITLE10=Incarnation
TTITLE11=Soaring
TTITLE12=Tone Poem
TTITLE13=Up With The Lark
EXTD=YEAR: 2006
EXTT0=
EXTT1=
EXTT2=
EXTT3=
EXTT4=
EXTT5=
EXTT6=
EXTT7=
EXTT8=
EXTT9=
EXTT10=
EXTT11=
EXTT12=
EXTT13=
PLAYORDER=
